<svg xmlns="http://www.w3.org/2000/svg" height="100%" viewBox="-0 0 20 20" style="border: 1px red solid;">
  <!-- SVG Coordinates Guide -->
  <!-- <defs>
    <pattern id="dots" x="0" y="0" width="0.05" height="0.05">
      <circle r="0.05" cx="0.5" cy="0.5" fill="#ccc" />
    </pattern>
  </defs>
  <path d="M0,0h20v20h-20z" fill="#eee" />
  <path d="M0.5,0.5h20v20h-20z" fill="url('#dots')" />
  <path stroke="blue" stroke-opacity="0.5" stroke-width="0.05" fill="none" d="M-1,0h6v-0.5m0,0.5h5v-0.5m0,0.5h5v-0.5m0,0.5h5v-0.5
      M0,-1v6h-0.5m0.5,0v5h-0.5m0.5,0v5h-0.5m0.5,0v5h-0.5" />
  <g font-family="monospace" font-size="0.5px" fill="gray">
    <g text-anchor="middle">
      <text x="5" y="-1">5</text>
      <text x="10" y="-1">10</text>
      <text x="15" y="-1">15</text>
      <text x="20" y="-1">20</text>
    </g>
    <text y="5.1" x="-1.5">5</text>
    <text y="10.1" x="-1.5">10</text>
    <text y="15.1" x="-1.5">15</text>
    <text y="20.15" x="-1.5">20</text>
  </g> -->

  <style>
    #sun {
      animation: sunset 4s infinite alternate ease-in-out;
    }

    .dark {
      animation: darken 4s infinite alternate ease-in-out;
    }

    @keyframes darken {
      from {
        opacity: 0;
      }

      to {
        opacity: 0.9;
      }
    }

    @keyframes sunset {
      from {
        transform: translate(0, 0);
      }

      to {
        transform: translate(0, 10px);
      }
    }
  </style>

  <rect id="sky" width="20" height="20" fill="SkyBlue" />
  <!-- the Pink rect will appear over the sky -->
  <rect class="dark" width="20" height="20" fill="Pink" />
  <circle id="sun" r="4" cx="5" cy="5" fill="LightYellow" />
  <rect id="grass" width="20" height="7" y="13" fill="MediumSeaGreen" />

  <!-- My drawing here -->
  <g id="house" transform="scale(1.2) translate(-2,-1)">
    <rect id="housefront" x="11" y="10" width="5" height="4" fill="Peachpuff" />
    <rect id="chimney" width="1" height="2" x="15" y="8" fill="Chocolate" />
    <polygon id="roof" points="10,10 13.5,7 17,10" fill="Tomato" />
    <rect id="door" width="1" height="2.5" x="12" y="11.5" fill="SteelBlue" />
    <rect id="window" width="1" height="1" x="14" y="11" fill="SteelBlue" />
    <!-- the MidnightBlue rect will appear over the whole image -->
    <rect class="dark" width="20" height="20" fill="MidnightBlue" style="mix-blend-mode: hue;">
  </g>


</svg>